<?xml version="1.0" standalone="no"?>
<!DOCTYPE svg PUBLIC "-//W3C//DTD SVG 20010904//EN"
 "http://www.w3.org/TR/2001/REC-SVG-20010904/DTD/svg10.dtd">
<svg version="1.0" xmlns="http://www.w3.org/2000/svg"
 width="534.000000pt" height="534.000000pt" viewBox="0 0 534.000000 534.000000"
 preserveAspectRatio="xMidYMid meet">
<metadata>
Created by potrace 1.14, written by Peter Selinger 2001-2017
</metadata>
<g transform="translate(0.000000,534.000000) scale(0.100000,-0.100000)"
fill="#000000" stroke="none">
<path d="M1815 5250 c-128 -29 -216 -69 -305 -139 -152 -120 -231 -285 -232
-482 l0 -67 -80 -78 c-158 -155 -147 -210 46 -242 l94 -15 16 -67 c22 -88 28
-125 41 -227 30 -248 37 -291 60 -386 55 -220 142 -382 278 -520 17 -17 17
-20 -21 -65 -45 -54 -108 -148 -142 -209 -14 -26 -29 -40 -39 -38 -110 20
-242 20 -282 0 -29 -15 -54 -58 -44 -74 8 -14 86 -30 175 -37 46 -3 93 -9 104
-13 22 -9 28 -1 -63 -78 -47 -41 -91 -103 -91 -129 0 -12 -5 -14 -17 -8 -121
53 -281 -48 -309 -195 -3 -14 -7 -28 -10 -33 -6 -9 -6 -135 0 -163 4 -21 37
-117 51 -150 6 -14 -12 -5 -61 30 -38 27 -71 51 -74 55 -19 23 -154 110 -170
110 -32 0 -53 -43 -48 -100 4 -35 16 -66 46 -112 38 -59 49 -87 51 -130 1 -17
75 -132 108 -166 10 -11 44 -46 75 -79 51 -53 59 -68 74 -129 33 -144 134
-305 223 -355 33 -18 41 -31 72 -117 l35 -97 130 -78 c71 -42 159 -91 195
-109 66 -31 67 -32 56 -61 -9 -26 -7 -32 13 -47 26 -20 99 -38 186 -46 49 -5
66 -12 97 -41 45 -40 117 -87 204 -131 35 -18 84 -46 109 -62 149 -94 352 -94
558 0 25 11 48 20 51 20 3 0 81 36 173 81 242 117 402 181 492 195 77 13 221
83 278 137 49 46 112 165 104 199 -1 4 15 17 36 29 137 83 217 175 228 264 4
28 17 70 30 95 24 49 55 149 59 190 11 111 20 154 45 215 68 169 84 393 37
508 -19 45 -96 110 -204 173 -55 32 -89 58 -91 70 -7 42 -42 102 -84 142 -39
38 -126 82 -162 82 -8 0 -40 30 -72 67 -33 37 -75 83 -95 103 -20 19 -52 60
-71 90 -40 64 -117 158 -176 215 -44 42 -41 53 17 54 51 2 112 42 147 97 29
46 41 55 79 65 57 14 77 38 83 97 7 76 -13 103 -107 148 -44 21 -78 41 -76 45
3 4 381 232 565 339 8 5 49 29 90 53 41 24 125 72 185 107 141 81 192 115 211
145 14 21 14 27 -5 63 -49 96 -225 226 -402 298 -59 24 -258 89 -304 99 -183
39 -312 53 -344 35 -12 -6 -54 -54 -94 -108 -190 -254 -313 -362 -395 -348
-160 28 -320 184 -383 375 -70 212 -213 419 -365 527 -168 120 -378 161 -589
114z"/>
</g>
</svg>
